<svg xmlns="http://www.w3.org/2000/svg" xmlns:xlink="http://www.w3.org/1999/xlink" width="512" height="512" viewBox="0 0 512 512">
  <defs>
    <clipPath id="clip-favicon">
      <rect width="512" height="512"/>
    </clipPath>
  </defs>
  <g id="favicon" clip-path="url(#clip-favicon)">
    <g id="Group_12" data-name="Group 12" transform="translate(3611.336 866.794)">
      <g id="head_Pomp" data-name="head/Pomp" transform="translate(-3588.336 -866.794)">
        <path id="_Skin" data-name="âœ‹ Skin" d="M24.172,95.175c3.942-23.848-9-28.8,0-51.467C44.164,1.7,98.647,3.512,138.628.283c44.593-1.712,89.727,4.178,130.837,22.05a210.7,210.7,0,0,1,28.318,14.993c7.829,4.932,6.758,14.311,1.816,19.427,35.6,50.406,15.237,118.067,43.635,171.123,5.247,9.485,12.186,17.989,16.744,27.858,6.932,15,7.376,36.495-8.344,46.453-22.141,11.884-34.5-11.646-45.376,22.461C251.931,443.585,142.69,450.284,38.991,388.277c-8.972-4.99-18.129-10.631-24.9-18.472C-1.291,352.5.52,328.162.18,306.549q-.285-19-.1-38C.561,217.239,17.567,146.062,24.172,95.175Z" transform="translate(87.154 81.675)" fill="none"/>
        <path id="_Ink" data-name="ðŸ– Ink" d="M248.05,512a65,65,0,0,0,17.7-2.238c6.674-1.867,12.506-5.058,16.419-8.984a19.922,19.922,0,0,0,4.824-7.453,17.845,17.845,0,0,0,.586-9.423,4.435,4.435,0,0,0-1.8-2.843,5.4,5.4,0,0,0-3.1-.93,5.628,5.628,0,0,0-4.812,2.509l-.519.83c-2.424,3.846-5.422,8.141-10.345,10.45a33.8,33.8,0,0,1-8.757,2.641,58.776,58.776,0,0,1-9.14.749c-.377,0-.757.006-1.129.006-16.377,0-33.347-4.048-49.326-8.194a282.278,282.278,0,0,1-45.024-15.673A199.371,199.371,0,0,1,112.7,449.125a70.548,70.548,0,0,1-13.81-14,51.291,51.291,0,0,1-4.942-8.372,46.477,46.477,0,0,1-3.209-9.393c-3.011-13.338-1.307-27.627.341-41.451.359-3.011.73-6.126,1.037-9.131,3-29.454,6.66-60.727,11.874-101.4l.868-6.75q.447-3.466.9-6.932l.006-.046c3.3-25.471,6.719-51.809,8.387-77.853a7.985,7.985,0,0,0,1.47-3.492l.285-1.848a15.352,15.352,0,0,0,.113-4.37c-.01-5.278-.157-10.3-.448-15.346-.051-.919-.092-1.845-.124-2.745,4.975,1.1,10.238,2.054,16.09,2.93a514.967,514.967,0,0,0,76.433,5.717c12.679,0,25.517-.476,38.158-1.415,17.636-1.314,36.227-3.573,56.836-6.913,9.879-1.6,19.535-3.342,28.7-5.186,5.615-1.123,11.222-2.594,16.648-4.017l.053-.014c1.219-.32,2.479-.65,3.719-.971A58.063,58.063,0,0,1,360,152.833a53.936,53.936,0,0,1,2.12,18.3c-.345,5.856-2.2,11.572-4,17.1a99.3,99.3,0,0,0-3.308,11.812,32.761,32.761,0,0,0-.249,12.2,21.082,21.082,0,0,0,9.324,14.243c4.719,3.214,10.73,5.127,15.993,6.668l4.829,1.4a13.952,13.952,0,0,1,4.684,2.031,6.654,6.654,0,0,1,2.4,4.566c.817,5.4.349,11.275-.1,16.96-.193,2.45-.375,4.758-.462,7.045-.11,2.8-.231,5.626-.348,8.36-.268,6.222-.543,12.66-.693,18.99-.03,1.257-.065,2.536-.1,3.778v.027c-.094,3.4-.192,6.918-.186,10.371a14.216,14.216,0,0,0,1.807,7.8,29.233,29.233,0,0,0-2.693,4.059.458.458,0,0,0,.008.464.517.517,0,0,0,.428.251.433.433,0,0,0,.313-.139,26.721,26.721,0,0,1,3.217-2.849,26.5,26.5,0,0,0,2.012,2.186l.06-.082a6.476,6.476,0,0,0,4.594,1.915,7.228,7.228,0,0,0,4.713-1.838l.79-.685c2.072-1.815,3.705-3.463,4.333-6.738v-.007c.031-.161.061-.324.081-.483.347-.012.709-.018,1.075-.018a31.649,31.649,0,0,1,15.271,3.938,37.787,37.787,0,0,1,16.948,18.5,21.417,21.417,0,0,1-4.684,4.1.233.233,0,0,0-.1.27.247.247,0,0,0,.231.178.264.264,0,0,0,.114-.028,22.42,22.42,0,0,0,4.982-3.2,45.109,45.109,0,0,1,2.542,9.832,43.554,43.554,0,0,1-1.419,19.14,31.111,31.111,0,0,1-4.2,8.586,24.434,24.434,0,0,1-6.895,6.588,30.193,30.193,0,0,1-16,4.7h-.081A31.418,31.418,0,0,1,409.555,382c-.426-.1-.859-.223-1.277-.336h-.011A16.374,16.374,0,0,0,404,380.9a8.893,8.893,0,0,0-4.544,1.225l.388.034a2.213,2.213,0,0,1,.592.086,5.85,5.85,0,0,1-1.143.042,5.325,5.325,0,0,0-4.492,2.655,5.457,5.457,0,0,0-.052,5.275l.246.556.064.139.065.141.148.956.017.1v.023c.008.05.016.1.026.152l.057.194a.932.932,0,0,0,.035.093l-6.126,9.34c-7.222,10.989-15.019,22.607-23.922,33.244A273.83,273.83,0,0,1,345.88,456.3c-4,3.88-8.425,6.4-13.107,9.062-2.45,1.395-4.982,2.837-7.434,4.487a7.753,7.753,0,0,0-3.434,5.615,6.668,6.668,0,0,0,2,5.456,15.121,15.121,0,0,0,10.967,4.617,24.3,24.3,0,0,0,11.463-3.3,44.573,44.573,0,0,0,9.75-7.31c6.826-6.727,13.412-15.2,20.133-25.912a185.535,185.535,0,0,0,13.433-25.257,140.1,140.1,0,0,0,4.961-13.313,121.856,121.856,0,0,0,3.481-13.827,15.031,15.031,0,0,0,5.278,2.87,41.72,41.72,0,0,0,12.088,2.021c.465.015.937.024,1.4.024a49.4,49.4,0,0,0,21.078-4.975,41.626,41.626,0,0,0,15.38-12.566,49.091,49.091,0,0,0,8.36-17.7,59.856,59.856,0,0,0,.866-24.875,55.039,55.039,0,0,0-9.411-22.784,135.631,135.631,0,0,0,4.093-15.951c.333-1.56.647-3.03.972-4.468l.646-2.806c2.086-9.112,3.579-16.659,4.7-23.75a192.256,192.256,0,0,0,2.394-24c.567-17.737-1.993-33.2-7.823-47.28a90.744,90.744,0,0,0-5.646-11.517c-.567-.964-1.252-1.93-1.978-2.953-1.494-2.1-3.037-4.279-3.6-6.563-1.233-4.981,3.51-10.178,7.7-14.762a39.606,39.606,0,0,0,5.117-6.351,22.018,22.018,0,0,0,3.017-10.917,16.525,16.525,0,0,0-6.077-12.642,29.114,29.114,0,0,0,3.686-14.819,25.909,25.909,0,0,0-5.044-14.727,28.984,28.984,0,0,0-18.234-11.322,30.1,30.1,0,0,0-5.1-.417,35.726,35.726,0,0,0-9.529,1.3A350.477,350.477,0,0,0,379.744,60.8,328.931,328.931,0,0,0,332.21,34.209,380.464,380.464,0,0,0,253.576,8.566,400.164,400.164,0,0,0,130.276,2.1,386.657,386.657,0,0,0,31.634,25.187l-2.775,1.072-1.379.529C20,29.646,12.268,32.607,6.68,38.375a23.859,23.859,0,0,0-4.223,5.933A23.027,23.027,0,0,0,.279,51.081a21.458,21.458,0,0,0,2.49,13.961A29.085,29.085,0,0,0,10.5,73.8,38.087,38.087,0,0,0,20.87,79.387a61.562,61.562,0,0,0-7.361,7.136,11.821,11.821,0,0,0-3.028,7.583A10.392,10.392,0,0,0,11.2,98.06a10.946,10.946,0,0,0,2.314,3.583,62.862,62.862,0,0,0,13.7,10.782,63.5,63.5,0,0,0,16.1,6.656,31.4,31.4,0,0,0,2.134,18.979,26.758,26.758,0,0,0,6.876,9.338,32.788,32.788,0,0,0,9.7,5.738c6.258,2.45,14.047,3.687,23.15,3.687,2.212,0,4.538-.074,6.912-.22l.51-.032.939,10.751a12.946,12.946,0,0,0,2.88,7.342,11,11,0,0,0,6.87,3.705c.2.031.408.051.613.07-9.3,33.645-14.937,68.724-19.909,101.769-2.348,15.591-4.625,32.1-7.385,53.544l-.763,5.957c-.556,4.379-1.156,8.845-1.736,13.164v.013c-1.976,14.73-4.017,29.962-4.837,44.955a96.528,96.528,0,0,0,.145,13.031,76.719,76.719,0,0,0,2.059,12.563,65.49,65.49,0,0,0,4.273,11.926,62.459,62.459,0,0,0,6.784,11.118c8.882,11.615,21.43,21.5,37.306,29.373a391.308,391.308,0,0,0,49.683,20.67c8.59,2.87,17.271,5.392,25.8,7.494,8.8,2.168,17.694,3.956,26.443,5.309l2.381.367A159.279,159.279,0,0,0,248.05,512ZM390.064,361.184a6.534,6.534,0,0,0,3.982-1.363c1.754-1.313,3.346-2.68,4.884-4,3.79-3.256,7.369-6.33,12.7-8.055a55.358,55.358,0,0,1,16.437-2.8,32.926,32.926,0,0,1,5.7.469.877.877,0,0,0,.147.012,1.021,1.021,0,0,0,.928-.638.715.715,0,0,0-.228-.817,36.9,36.9,0,0,0-10.137-6.547,29.438,29.438,0,0,0-11.632-2.319c-.95,0-1.929.043-2.909.125a48.5,48.5,0,0,0-15.117,3.794,33.906,33.906,0,0,0-6.8,3.96,23.953,23.953,0,0,0-5.3,5.477,7.26,7.26,0,0,0-.2,7.693A9.023,9.023,0,0,0,390.064,361.184Z" transform="translate(-0.004 0)"/>
      </g>
      <g id="face_Explaining" data-name="face/Explaining" transform="translate(-3459.653 -663.627)">
        <path id="teeth" d="M89.426,11.256C81.258-5.079,6.33,2.264,6.33,2.264L0,54.187s36.153,11.62,57.672,9.189S97.595,27.591,89.426,11.256Z" transform="translate(63.289 158.996)" fill="#fff"/>
        <path id="tongue" d="M79.728,13.84C82.316,8.3,28.751-6.8,12.167,3.521S.768,27.915.768,27.915,70.522,43.825,79.728,13.84Z" transform="translate(67.708 183.685)" fill="none"/>
        <path id="_Ink-2" data-name="ðŸ– Ink" d="M109.963,227.507a73.1,73.1,0,0,0,25.388-4.346A47.739,47.739,0,0,0,156.2,208.616a41.582,41.582,0,0,0,9.2-23.963A35.719,35.719,0,0,0,163.764,172a32.842,32.842,0,0,0-6.4-11.421,37.074,37.074,0,0,0-15.669-10.636,54.933,54.933,0,0,0-18.81-3.046,81.371,81.371,0,0,0-16.525,1.775c-4.345.906-8.717,2.063-12.946,3.183a158.887,158.887,0,0,1-20.521,4.472,106.5,106.5,0,0,1-13.489.8c-.829,0-1.683-.008-2.537-.023-2.281-.042-4.6-.268-6.84-.488-2.487-.243-5.056-.494-7.576-.494-.453,0-.9.008-1.327.025a.817.817,0,0,0-.772.62.8.8,0,0,0,.36.9,40.5,40.5,0,0,0,12.183,4.675,108.024,108.024,0,0,0,13.159,2.014,15.28,15.28,0,0,1-.151,1.76c-.266,1.6-.461,2.917-.613,4.156-.368,3.006-.784,6.052-1.187,9l-.058.423c-.275,2-.492,4.063-.7,6.056a94.6,94.6,0,0,1-1.9,12.568l-.26,1.009a9.327,9.327,0,0,0-.306,3.464l-.345-.156-1.089-.529-.715-.337a16.092,16.092,0,0,0-6.984-1.852c-.388,0-.784.019-1.177.057a5.118,5.118,0,0,0-3.023,1.3,4.056,4.056,0,0,0-1.284,3,11.016,11.016,0,0,0,2.4,6.988,18.78,18.78,0,0,0,5.983,4.767c4.75,2.561,10.632,4.02,14.927,5.085l.329.082,2.529.623c9.981,2.435,21.763,5,33.467,5.584C107.235,227.474,108.608,227.507,109.963,227.507Zm6-33.861h0a58.009,58.009,0,0,1,16.989,3.025c5.173,1.685,8.984,3.638,9.476,4.861a.531.531,0,0,1-.116.628,36.929,36.929,0,0,1-14.913,8.627,58.226,58.226,0,0,1-17.268,2.392,89.375,89.375,0,0,1-12.085-.867A197.658,197.658,0,0,1,75.1,207.575a15.6,15.6,0,0,1,5.483-10.664,15.866,15.866,0,0,1,10.01-3.419,16.529,16.529,0,0,1,7.562,1.791,13.086,13.086,0,0,1,5.492,5.207,7.127,7.127,0,0,1,4.145-5.325,18.7,18.7,0,0,1,8.168-1.516Zm3.9-32.391h0a48.285,48.285,0,0,1,12.381,1.435,30.507,30.507,0,0,1,11.083,5.366,18.308,18.308,0,0,1,6.864,11.184c-9.13-1.354-19.01-2.52-30.2-3.567l-2.757-.253c-6.289-.567-12.665-1.172-18.95-1.8l-4.492-.454L89.3,172.7c-1.225-.129-7.657-.468-11.492-.468a18.912,18.912,0,0,0-2.723.124c-.057-.48-.117-1.1-.187-1.808a47.066,47.066,0,0,0-.756-5.626c1.225.042,2.467.062,3.695.062a142.863,142.863,0,0,0,18.9-1.365l1.327-.181,5.207-.748,2.049-.282a111.548,111.548,0,0,1,14.539-1.153ZM73.725,130.913h0a35.646,35.646,0,0,0,12.71-2.562,64.191,64.191,0,0,0,14.946-8.481,5.743,5.743,0,0,0,2.086-3.317,6.873,6.873,0,0,0-.3-3.724,8.474,8.474,0,0,0-2.516-3.637,6.126,6.126,0,0,0-3.921-1.531,5.564,5.564,0,0,0-3.033.931l-1.021.784h-.006a80.911,80.911,0,0,1-9.357,6.507c-4.228,2.406-7.9,3.573-11.214,3.573a12.112,12.112,0,0,1-4.738-.931A13.244,13.244,0,0,1,62.95,115.4a14.274,14.274,0,0,1-2.825-7.593l.191.1a1.417,1.417,0,0,0,.158.091c.056.028.086.046.129.071v-.261l-.37-.134-.117-.04v.167l-.18-.1-.125-.076c-.069-.045-.1-.075-.1-.088s.009-.008.022-.008a1.8,1.8,0,0,1,.374.1c-.144-3.807,1.418-7.7,4.644-11.568a38.843,38.843,0,0,1,9.351-7.9,2.564,2.564,0,0,0,.693-2.947,3.846,3.846,0,0,0-1.274-1.838,3.91,3.91,0,0,0-2.44-.806,5.2,5.2,0,0,0-.878.078,27.725,27.725,0,0,0-9.75,3.522,22.117,22.117,0,0,0-6.558,6.046,24.019,24.019,0,0,0-4.186,16.047,26.443,26.443,0,0,0,2.144,8.423,24.575,24.575,0,0,0,4.833,7.236,23.1,23.1,0,0,0,17.04,6.991ZM145.882,86.3a8.758,8.758,0,0,0,5.688-2.2,17.474,17.474,0,0,0,4.1-5.335,30.343,30.343,0,0,0,3.385-12.485v-.23a34.283,34.283,0,0,0-3.08-13.129c-1.762-3.762-4.943-8.246-10.1-8.246-2.722,0-5.134,2.2-6.977,6.362a42.453,42.453,0,0,0-3.048,14.184l-.022.425a40.225,40.225,0,0,0,.817,9.4c.838,3.977,2.236,7.074,4.044,8.959a6.993,6.993,0,0,0,5.187,2.3ZM34.251,84.262A7.008,7.008,0,0,0,39.5,81.908c1.28-1.359,3.025-4.067,4.061-9.257a39.467,39.467,0,0,0,.715-9.47l-.051-.781A41.213,41.213,0,0,0,41.1,48.713c-1.826-3.976-4.194-6.077-6.849-6.077-5.156,0-8.337,4.484-10.1,8.246a34.284,34.284,0,0,0-3.08,13.129v.23a30.342,30.342,0,0,0,3.385,12.485,17.473,17.473,0,0,0,4.1,5.335,8.758,8.758,0,0,0,5.692,2.2ZM179.471,44.243h.055a5.012,5.012,0,0,0,3.865-1.888c1.96-2.436,2.07-6.647,1.569-9.516a40.86,40.86,0,0,0-3.73-11.195,45.078,45.078,0,0,0-6.621-9.774,36.318,36.318,0,0,0-9.439-7.64A33.837,33.837,0,0,0,153.711.29,26.136,26.136,0,0,0,149.8,0a24.114,24.114,0,0,0-10.173,2.118,16.27,16.27,0,0,0-4.24,2.828,13.289,13.289,0,0,0-3.015,4.168,5.513,5.513,0,0,0,.163,5.166,4.928,4.928,0,0,0,4.134,2.323c1.021.049,2.133.072,3.385.072,1.133,0,2.246-.018,3.329-.037h.038c1.061-.017,2.157-.036,3.221-.036a38.4,38.4,0,0,1,8.581.78,21.9,21.9,0,0,1,8.3,3.824,42.408,42.408,0,0,1,9.311,10.2l.976,1.429.809,1.173c1.663,2.436,3.415,5.311,3.152,8.474a1.555,1.555,0,0,0,.44,1.16,1.77,1.77,0,0,0,1.262.6ZM7.634,37.254a6.33,6.33,0,0,0,3.573-1.032c2.506-1.7,3.816-3.94,5.207-6.315a29.508,29.508,0,0,1,2.835-4.254,30.451,30.451,0,0,1,19.277-9.86l.607-.057c.418-.036,1.054-.056,1.747-.056a33.276,33.276,0,0,1,5.531.438c2.228.4,3.652,1.035,4.234,1.889a1.766,1.766,0,0,1,.134,1.727.7.7,0,0,0,.075.667,1,1,0,0,0,.8.416.739.739,0,0,0,.565-.244,4.743,4.743,0,0,0,1.273-3.949c-.361-2.716-2.834-5.417-5.125-6.89a29.19,29.19,0,0,0-15.633-4.3c-.858,0-1.721.035-2.567.1A42,42,0,0,0,16.079,9.622c-3.7,1.778-8.853,4.864-12.39,9.461a18.071,18.071,0,0,0-3.1,5.937A14.611,14.611,0,0,0,.24,31.759c.613,3.441,4.244,5.5,7.395,5.5Z" transform="translate(0.001 0.002)"/>
      </g>
      <path id="_Skin-2" data-name="âœ‹ Skin" d="M24.172,95.175c3.942-23.848-9-28.8,0-51.467C44.164,1.7,98.647,3.512,138.628.283c44.593-1.712,89.727,4.178,130.837,22.05a210.7,210.7,0,0,1,28.318,14.993c7.829,4.932,6.758,14.311,1.816,19.427,35.6,50.406,15.237,118.067,43.635,171.123,5.247,9.485,12.186,17.989,16.744,27.858,6.932,15,7.376,36.495-8.344,46.453-22.141,11.884-34.5-11.646-45.376,22.461C251.931,443.585,142.69,450.284,38.991,388.277c-8.972-4.99-18.129-10.631-24.9-18.472C-1.291,352.5.52,328.162.18,306.549q-.285-19-.1-38C.561,217.239,17.567,146.062,24.172,95.175Z" transform="translate(-3501.183 -785.118)" fill="none"/>
      <path id="_Ink-3" data-name="ðŸ– Ink" d="M248.05,512a65,65,0,0,0,17.7-2.238c6.674-1.867,12.506-5.058,16.419-8.984a19.922,19.922,0,0,0,4.824-7.453,17.845,17.845,0,0,0,.586-9.423,4.435,4.435,0,0,0-1.8-2.843,5.4,5.4,0,0,0-3.1-.93,5.628,5.628,0,0,0-4.812,2.509l-.519.83c-2.424,3.846-5.422,8.141-10.345,10.45a33.8,33.8,0,0,1-8.757,2.641,58.776,58.776,0,0,1-9.14.749c-.377,0-.757.006-1.129.006-16.377,0-33.347-4.048-49.326-8.194a282.278,282.278,0,0,1-45.024-15.673A199.371,199.371,0,0,1,112.7,449.125a70.548,70.548,0,0,1-13.81-14,51.291,51.291,0,0,1-4.942-8.372,46.477,46.477,0,0,1-3.209-9.393c-3.011-13.338-1.307-27.627.341-41.451.359-3.011.73-6.126,1.037-9.131,3-29.454,6.66-60.727,11.874-101.4l.868-6.75q.447-3.466.9-6.932l.006-.046c3.3-25.471,6.719-51.809,8.387-77.853a7.985,7.985,0,0,0,1.47-3.492l.285-1.848a15.352,15.352,0,0,0,.113-4.37c-.01-5.278-.157-10.3-.448-15.346-.051-.919-.092-1.845-.124-2.745,4.975,1.1,10.238,2.054,16.09,2.93a514.967,514.967,0,0,0,76.433,5.717c12.679,0,25.517-.476,38.158-1.415,17.636-1.314,36.227-3.573,56.836-6.913,9.879-1.6,19.535-3.342,28.7-5.186,5.615-1.123,11.222-2.594,16.648-4.017l.053-.014c1.219-.32,2.479-.65,3.719-.971A58.063,58.063,0,0,1,360,152.833a53.936,53.936,0,0,1,2.12,18.3c-.345,5.856-2.2,11.572-4,17.1a99.3,99.3,0,0,0-3.308,11.812,32.761,32.761,0,0,0-.249,12.2,21.082,21.082,0,0,0,9.324,14.243c4.719,3.214,10.73,5.127,15.993,6.668l4.829,1.4a13.952,13.952,0,0,1,4.684,2.031,6.654,6.654,0,0,1,2.4,4.566c.817,5.4.349,11.275-.1,16.96-.193,2.45-.375,4.758-.462,7.045-.11,2.8-.231,5.626-.348,8.36-.268,6.222-.543,12.66-.693,18.99-.03,1.257-.065,2.536-.1,3.778v.027c-.094,3.4-.192,6.918-.186,10.371a14.216,14.216,0,0,0,1.807,7.8,29.233,29.233,0,0,0-2.693,4.059.458.458,0,0,0,.008.464.517.517,0,0,0,.428.251.433.433,0,0,0,.313-.139,26.721,26.721,0,0,1,3.217-2.849,26.5,26.5,0,0,0,2.012,2.186l.06-.082a6.476,6.476,0,0,0,4.594,1.915,7.228,7.228,0,0,0,4.713-1.838l.79-.685c2.072-1.815,3.705-3.463,4.333-6.738v-.007c.031-.161.061-.324.081-.483.347-.012.709-.018,1.075-.018a31.649,31.649,0,0,1,15.271,3.938,37.787,37.787,0,0,1,16.948,18.5,21.417,21.417,0,0,1-4.684,4.1.233.233,0,0,0-.1.27.247.247,0,0,0,.231.178.264.264,0,0,0,.114-.028,22.42,22.42,0,0,0,4.982-3.2,45.109,45.109,0,0,1,2.542,9.832,43.554,43.554,0,0,1-1.419,19.14,31.111,31.111,0,0,1-4.2,8.586,24.434,24.434,0,0,1-6.895,6.588,30.193,30.193,0,0,1-16,4.7h-.081A31.418,31.418,0,0,1,409.555,382c-.426-.1-.859-.223-1.277-.336h-.011A16.374,16.374,0,0,0,404,380.9a8.893,8.893,0,0,0-4.544,1.225l.388.034a2.213,2.213,0,0,1,.592.086,5.85,5.85,0,0,1-1.143.042,5.325,5.325,0,0,0-4.492,2.655,5.457,5.457,0,0,0-.052,5.275l.246.556.064.139.065.141.148.956.017.1v.023c.008.05.016.1.026.152l.057.194a.932.932,0,0,0,.035.093l-6.126,9.34c-7.222,10.989-15.019,22.607-23.922,33.244A273.83,273.83,0,0,1,345.88,456.3c-4,3.88-8.425,6.4-13.107,9.062-2.45,1.395-4.982,2.837-7.434,4.487a7.753,7.753,0,0,0-3.434,5.615,6.668,6.668,0,0,0,2,5.456,15.121,15.121,0,0,0,10.967,4.617,24.3,24.3,0,0,0,11.463-3.3,44.573,44.573,0,0,0,9.75-7.31c6.826-6.727,13.412-15.2,20.133-25.912a185.535,185.535,0,0,0,13.433-25.257,140.1,140.1,0,0,0,4.961-13.313,121.856,121.856,0,0,0,3.481-13.827,15.031,15.031,0,0,0,5.278,2.87,41.72,41.72,0,0,0,12.088,2.021c.465.015.937.024,1.4.024a49.4,49.4,0,0,0,21.078-4.975,41.626,41.626,0,0,0,15.38-12.566,49.091,49.091,0,0,0,8.36-17.7,59.856,59.856,0,0,0,.866-24.875,55.039,55.039,0,0,0-9.411-22.784,135.631,135.631,0,0,0,4.093-15.951c.333-1.56.647-3.03.972-4.468l.646-2.806c2.086-9.112,3.579-16.659,4.7-23.75a192.256,192.256,0,0,0,2.394-24c.567-17.737-1.993-33.2-7.823-47.28a90.744,90.744,0,0,0-5.646-11.517c-.567-.964-1.252-1.93-1.978-2.953-1.494-2.1-3.037-4.279-3.6-6.563-1.233-4.981,3.51-10.178,7.7-14.762a39.606,39.606,0,0,0,5.117-6.351,22.018,22.018,0,0,0,3.017-10.917,16.525,16.525,0,0,0-6.077-12.642,29.114,29.114,0,0,0,3.686-14.819,25.909,25.909,0,0,0-5.044-14.727,28.984,28.984,0,0,0-18.234-11.322,30.1,30.1,0,0,0-5.1-.417,35.726,35.726,0,0,0-9.529,1.3A350.477,350.477,0,0,0,379.744,60.8,328.931,328.931,0,0,0,332.21,34.209,380.464,380.464,0,0,0,253.576,8.566,400.164,400.164,0,0,0,130.276,2.1,386.657,386.657,0,0,0,31.634,25.187l-2.775,1.072-1.379.529C20,29.646,12.268,32.607,6.68,38.375a23.859,23.859,0,0,0-4.223,5.933A23.027,23.027,0,0,0,.279,51.081a21.458,21.458,0,0,0,2.49,13.961A29.085,29.085,0,0,0,10.5,73.8,38.087,38.087,0,0,0,20.87,79.387a61.562,61.562,0,0,0-7.361,7.136,11.821,11.821,0,0,0-3.028,7.583A10.392,10.392,0,0,0,11.2,98.06a10.946,10.946,0,0,0,2.314,3.583,62.862,62.862,0,0,0,13.7,10.782,63.5,63.5,0,0,0,16.1,6.656,31.4,31.4,0,0,0,2.134,18.979,26.758,26.758,0,0,0,6.876,9.338,32.788,32.788,0,0,0,9.7,5.738c6.258,2.45,14.047,3.687,23.15,3.687,2.212,0,4.538-.074,6.912-.22l.51-.032.939,10.751a12.946,12.946,0,0,0,2.88,7.342,11,11,0,0,0,6.87,3.705c.2.031.408.051.613.07-9.3,33.645-14.937,68.724-19.909,101.769-2.348,15.591-4.625,32.1-7.385,53.544l-.763,5.957c-.556,4.379-1.156,8.845-1.736,13.164v.013c-1.976,14.73-4.017,29.962-4.837,44.955a96.528,96.528,0,0,0,.145,13.031,76.719,76.719,0,0,0,2.059,12.563,65.49,65.49,0,0,0,4.273,11.926,62.459,62.459,0,0,0,6.784,11.118c8.882,11.615,21.43,21.5,37.306,29.373a391.308,391.308,0,0,0,49.683,20.67c8.59,2.87,17.271,5.392,25.8,7.494,8.8,2.168,17.694,3.956,26.443,5.309l2.381.367A159.279,159.279,0,0,0,248.05,512ZM390.064,361.184a6.534,6.534,0,0,0,3.982-1.363c1.754-1.313,3.346-2.68,4.884-4,3.79-3.256,7.369-6.33,12.7-8.055a55.358,55.358,0,0,1,16.437-2.8,32.926,32.926,0,0,1,5.7.469.877.877,0,0,0,.147.012,1.021,1.021,0,0,0,.928-.638.715.715,0,0,0-.228-.817,36.9,36.9,0,0,0-10.137-6.547,29.438,29.438,0,0,0-11.632-2.319c-.95,0-1.929.043-2.909.125a48.5,48.5,0,0,0-15.117,3.794,33.906,33.906,0,0,0-6.8,3.96,23.953,23.953,0,0,0-5.3,5.477,7.26,7.26,0,0,0-.2,7.693A9.023,9.023,0,0,0,390.064,361.184Z" transform="translate(-3588.34 -866.794)"/>
    </g>
  </g>
</svg>
