<svg width="5969" height="973" xmlns="http://www.w3.org/2000/svg" xmlns:xlink="http://www.w3.org/1999/xlink"><defs><path d="M162 .6C126.91 15-5 49.7 1 92.6c8.15 58.23 5.58 221.02 46 268.76 44.25 52.28 293.05 71.81 370.27 58.64 23.52-4.01 25.71-126.23 30.93-160.2L162 .6z" id="a"/><linearGradient x1="50%" y1="46.96%" x2="23.53%" y2="77.21%" id="c"><stop stop-color="#F8D6E5" offset="0%"/><stop stop-color="#F0E8EC" offset="100%"/></linearGradient></defs><g fill="none" fill-rule="evenodd"><path d="M657.6 184.4a238 238 0 0 1 4.8-46.8c-81 31.8-123 109.8-123 109.8S438 59 248.4 148.4C72 231.8 93.6 456.2 249.6 605c142.8 136.8 253.8 232.2 286.8 243.6h6.6c33-11.4 144-107.4 286.8-243.6 64.2-61.8 106.2-136.2 120-208.2-21.6 7.2-45 10.8-69 10.8-123 0-223.2-100.2-223.2-223.2z" fill="#F06DA3"/><g transform="translate(501 137)"><mask id="b" fill="#fff"><use xlink:href="#a"/></mask><g mask="url(#b)"><path d="M162 .6c-3.6 15-5.4 31.2-5.4 46.8 0 123 100.2 223.2 223.2 223.2 24 0 46.8-3.6 68.4-10.8L162 .6z" fill="#000"/><path d="M6 .6C2.4 15.6.6 31.8.6 47.4c0 123 100.2 223.2 223.2 223.2 24 0 46.8-3.6 68.4-10.8L6 .6z" fill="url(#c)" transform="translate(156)"/></g></g><path d="M1523.838 486.5c0 43.725-9.717 83.806-29.15 120.244-19.434 36.437-46.265 65.256-80.494 86.456-34.23 21.2-72.765 31.8-115.606 31.8-42.842 0-81.377-10.6-115.607-31.8-34.23-21.2-60.95-50.019-80.162-86.456C1083.606 570.306 1074 530.225 1074 486.5c0-43.725 9.606-83.806 28.819-120.244 19.212-36.437 45.933-65.256 80.162-86.456 34.23-21.2 72.765-31.8 115.606-31.8 42.842 0 81.377 10.6 115.607 31.8 34.23 21.2 61.06 50.019 80.493 86.456 19.434 36.438 29.15 76.519 29.15 120.244zm-86.125 0c0-29.592-5.963-56.423-17.888-80.494-11.925-24.07-28.487-43.173-49.688-57.306-21.2-14.133-45.05-21.2-71.55-21.2-26.941 0-50.901 6.956-71.88 20.869-20.98 13.912-37.322 33.014-49.026 57.306-11.704 24.292-17.556 51.233-17.556 80.825 0 29.592 5.852 56.533 17.556 80.825s28.046 43.394 49.025 57.306c20.98 13.913 44.94 20.869 71.882 20.869 26.5 0 50.35-7.067 71.55-21.2 21.2-14.133 37.762-33.235 49.687-57.306 11.925-24.071 17.888-50.902 17.888-80.494zm494.225-231.875c10.6 0 19.212 3.533 25.837 10.6s9.938 15.9 9.938 26.5v386.237c0 11.484-3.865 21.09-11.594 28.82-7.73 7.728-17.336 11.593-28.819 11.593-6.183 0-12.256-.994-18.219-2.981-5.962-1.988-10.268-4.748-12.918-8.282l-243.138-308.724v282.887c0 10.6-3.423 19.433-10.269 26.5s-15.79 10.6-26.831 10.6c-10.6 0-19.212-3.533-25.837-10.6-6.626-7.067-9.938-15.9-9.938-26.5V295.038c0-11.484 3.865-21.09 11.594-28.82 7.729-7.728 17.335-11.593 28.819-11.593 6.625 0 13.139 1.325 19.543 3.975 6.404 2.65 11.152 6.183 14.244 10.6l241.15 307.4V291.725c0-10.6 3.423-19.433 10.269-26.5s15.568-10.6 26.168-10.6zm377.624 387.563c11.484 0 21.09 3.864 28.82 11.593 7.728 7.73 11.593 16.673 11.593 26.832 0 11.041-3.865 20.095-11.594 27.162-7.729 7.067-17.335 10.6-28.818 10.6h-221.938c-11.483 0-21.09-3.865-28.819-11.594-7.729-7.729-11.593-17.335-11.593-28.818V295.037c0-11.484 3.864-21.09 11.593-28.82 7.73-7.728 17.336-11.593 28.819-11.593h221.938c11.483 0 21.089 3.644 28.818 10.931 7.73 7.288 11.594 16.673 11.594 28.156 0 11.042-3.754 19.986-11.262 26.832-7.509 6.846-17.225 10.268-29.15 10.268h-179.538v112.625h149.725c11.483 0 21.09 3.644 28.819 10.932 7.729 7.287 11.593 16.673 11.593 28.156 0 11.042-3.754 19.985-11.262 26.831-7.508 6.846-17.225 10.269-29.15 10.269h-149.725v122.563h179.537zm453.813-387.563c22.525 0 43.946 6.735 64.262 20.206 20.317 13.471 36.659 31.58 49.025 54.325 12.367 22.746 18.55 47.59 18.55 74.531 0 26.5-6.183 51.234-18.55 74.2-12.366 22.967-28.708 41.186-49.024 54.657-20.317 13.47-41.738 20.206-64.263 20.206H2648.1v125.212c0 11.926-3.533 21.642-10.6 29.15-7.067 7.509-16.342 11.263-27.825 11.263-11.042 0-20.096-3.865-27.163-11.594-7.066-7.729-10.6-17.335-10.6-28.818V295.037c0-11.484 3.865-21.09 11.594-28.82 7.73-7.728 17.336-11.593 28.819-11.593h151.05zm0 222.6c8.392 0 16.673-3.533 24.844-10.6 8.17-7.067 14.796-16.231 19.875-27.494 5.079-11.262 7.619-23.077 7.619-35.443 0-12.367-2.54-24.182-7.62-35.444-5.078-11.263-11.703-20.317-19.874-27.163s-16.452-10.269-24.844-10.269H2648.1v146.413h115.275zM3288.738 666.7c2.208 5.742 3.312 11.042 3.312 15.9 0 11.483-3.754 20.869-11.263 28.156-7.508 7.288-16.12 10.932-25.837 10.932-7.95 0-15.127-2.43-21.531-7.288-6.404-4.858-11.373-11.483-14.907-19.875l-34.45-80.162h-197.425l-34.45 80.824c-3.091 8.392-7.84 14.907-14.243 19.544-6.404 4.638-13.36 6.957-20.869 6.957-11.483 0-20.206-3.092-26.169-9.275-5.962-6.184-8.943-14.575-8.943-25.176 0-3.975.662-8.17 1.987-12.587l164.963-396.175c3.533-8.833 8.833-15.68 15.9-20.538 7.066-4.858 15.016-6.845 23.85-5.962 7.95 0 15.347 2.319 22.193 6.956 6.846 4.638 11.815 11.152 14.906 19.544L3288.738 666.7zM3019.1 538.175h132.5l-66.912-155.025-65.588 155.025zm647.925-70.225c11.483 0 20.98 3.865 28.487 11.594 7.509 7.729 11.263 17.335 11.263 28.818v140.45c0 15.459-6.846 27.384-20.537 35.775C3642.954 711.53 3595.475 725 3543.8 725c-43.725 0-84.137-10.71-121.238-32.131-37.1-21.421-66.47-50.35-88.112-86.788-21.642-36.437-32.462-76.297-32.462-119.581 0-43.284 10.82-83.144 32.462-119.581 21.642-36.438 51.012-65.367 88.113-86.788 37.1-21.42 77.512-32.131 121.237-32.131 43.725 0 81.708 8.833 113.95 26.5 6.625 3.533 11.594 8.17 14.906 13.912 3.313 5.742 4.969 11.925 4.969 18.55 0 11.042-3.644 20.648-10.931 28.82-7.288 8.17-16.231 12.255-26.831 12.255-6.626 0-13.913-1.766-21.863-5.3-23.85-10.158-48.583-15.237-74.2-15.237-28.267 0-54.325 7.177-78.175 21.531-23.85 14.354-42.731 33.677-56.644 57.969-13.912 24.292-20.869 50.792-20.869 79.5s6.957 55.208 20.87 79.5c13.912 24.292 32.793 43.615 56.643 57.969s49.908 21.531 78.175 21.531c12.367 0 25.617-1.104 39.75-3.313 14.133-2.208 26.5-5.079 37.1-8.612V547.45h-62.275c-11.483 0-21.09-3.754-28.819-11.262-7.729-7.509-11.593-17.005-11.593-28.488s3.864-20.98 11.593-28.488c7.73-7.508 17.336-11.262 28.819-11.262h108.65zm361.725 174.237c11.483 0 21.09 3.865 28.819 11.594 7.729 7.73 11.593 16.673 11.593 26.832 0 11.041-3.864 20.095-11.593 27.162-7.73 7.067-17.336 10.6-28.819 10.6h-221.938c-11.483 0-21.089-3.865-28.818-11.594-7.73-7.729-11.594-17.335-11.594-28.818V295.037c0-11.484 3.865-21.09 11.594-28.82 7.729-7.728 17.335-11.593 28.818-11.593h221.938c11.483 0 21.09 3.644 28.819 10.931 7.729 7.288 11.593 16.673 11.593 28.156 0 11.042-3.754 19.986-11.262 26.832-7.508 6.846-17.225 10.268-29.15 10.268h-179.537v112.625h149.724c11.484 0 21.09 3.644 28.82 10.932 7.728 7.287 11.593 16.673 11.593 28.156 0 11.042-3.754 19.985-11.262 26.831-7.509 6.846-17.225 10.269-29.15 10.269h-149.726v122.563h179.538zm518.075-1.325c11.483 0 21.09 3.644 28.819 10.932 7.729 7.287 11.593 16.673 11.593 28.156 0 11.042-3.864 20.206-11.593 27.494-7.73 7.287-17.336 10.931-28.819 10.931h-215.313c-11.483 0-21.089-3.865-28.818-11.594-7.73-7.729-11.594-17.335-11.594-28.818V295.037c0-11.484 3.975-21.09 11.925-28.82 7.95-7.728 18.108-11.593 30.475-11.593 11.042 0 20.537 3.865 28.488 11.594 7.95 7.729 11.925 17.335 11.925 28.819v345.824h172.912zm516.75-154.362c0 43.725-9.717 83.806-29.15 120.244-19.433 36.437-46.264 65.256-80.494 86.456-34.23 21.2-72.764 31.8-115.606 31.8s-81.377-10.6-115.606-31.8c-34.23-21.2-60.95-50.019-80.163-86.456-19.212-36.438-28.818-76.519-28.818-120.244 0-43.725 9.606-83.806 28.818-120.244C4661.77 329.82 4688.49 301 4722.72 279.8c34.23-21.2 72.764-31.8 115.606-31.8s81.377 10.6 115.606 31.8c34.23 21.2 61.06 50.019 80.494 86.456 19.433 36.438 29.15 76.519 29.15 120.244zm-86.125 0c0-29.592-5.962-56.423-17.887-80.494-11.926-24.07-28.488-43.173-49.688-57.306-21.2-14.133-45.05-21.2-71.55-21.2-26.942 0-50.902 6.956-71.881 20.869-20.98 13.912-37.321 33.014-49.025 57.306-11.704 24.292-17.556 51.233-17.556 80.825 0 29.592 5.852 56.533 17.556 80.825s28.045 43.394 49.025 57.306c20.979 13.913 44.94 20.869 71.881 20.869 26.5 0 50.35-7.067 71.55-21.2 21.2-14.133 37.762-33.235 49.688-57.306 11.925-24.071 17.887-50.902 17.887-80.494zm473.688-233.2c11.041 0 20.647 3.754 28.818 11.262 8.171 7.509 12.256 16.563 12.256 27.163 0 5.742-1.324 11.704-3.975 17.888L5324.6 692.538c-3.975 8.391-9.496 14.795-16.563 19.212-7.066 4.417-14.574 6.625-22.525 6.625-7.508-.442-14.464-2.76-20.868-6.956-6.404-4.196-11.373-10.269-14.907-18.219L5086.1 308.95c-2.208-4.417-3.313-9.937-3.313-16.562 0-11.926 4.417-21.532 13.25-28.82 8.834-7.287 17.888-10.93 27.163-10.93 7.508 0 14.575 2.208 21.2 6.625 6.625 4.416 11.704 10.82 15.238 19.212L5292.8 591.838l121.9-313.363c3.533-7.95 8.612-14.133 15.238-18.55 6.625-4.417 13.691-6.625 21.2-6.625zm353.112 388.887c11.483 0 21.09 3.865 28.819 11.594 7.729 7.73 11.593 16.673 11.593 26.832 0 11.041-3.864 20.095-11.593 27.162-7.73 7.067-17.336 10.6-28.819 10.6h-221.938c-11.483 0-21.089-3.865-28.818-11.594-7.73-7.729-11.594-17.335-11.594-28.818V295.037c0-11.484 3.865-21.09 11.594-28.82 7.729-7.728 17.335-11.593 28.819-11.593h221.937c11.483 0 21.09 3.644 28.819 10.931 7.729 7.288 11.593 16.673 11.593 28.156 0 11.042-3.754 19.986-11.262 26.832-7.508 6.846-17.225 10.268-29.15 10.268h-179.538v112.625h149.725c11.484 0 21.09 3.644 28.82 10.932 7.728 7.287 11.593 16.673 11.593 28.156 0 11.042-3.754 19.985-11.263 26.831-7.508 6.846-17.224 10.269-29.15 10.269h-149.725v122.563h179.538z" fill="#111"/></g></svg>